<?xml version="1.0" encoding="utf-8"?>
<!-- Generator: Adobe Illustrator 25.2.0, SVG Export Plug-In . SVG Version: 6.00 Build 0)  -->
<svg version="1.1" id="Layer_1" xmlns="http://www.w3.org/2000/svg" xmlns:xlink="http://www.w3.org/1999/xlink" x="0px" y="0px"
	 viewBox="0 0 240.3 215.9" style="enable-background:new 0 0 240.3 215.9;" xml:space="preserve">
<style type="text/css">
	.st0{fill:#F206C0;}
</style>
<path class="st0" d="M128.4,58.5c-5.2,4.4-10.2,8-14.4,12.4c-5.3,5.6-11.4,7.2-19,7.1c-24.2-0.5-48.5-0.2-72.7-0.2
	c-0.8,0-1.6,0-2.7,0c-0.1,0.9-0.1,1.7-0.1,2.5c0,5.2,0,10.4,0,15.5c0,5.1,3.6,9.2,8.5,9.9c1.5,0.2,3.1,0.5,4.6,0.5
	c4.2,0.1,3.5-0.1,4,3.9c1.5,13,2.7,26.1,4.1,39.1c1.4,13,2.8,26.1,4.4,39.1c0.6,5.1,4.7,8.2,9.8,8.2c43.4,0,86.7,0,130.1,0
	c5.7,0,9.7-3.9,10.3-9.5c1.2-11.6,2.6-23.1,3.8-34.7c1.2-11.4,2.4-22.8,3.6-34.2c0.3-3.2,0.7-6.4,1-9.5c0.1-1.5,0.7-2.3,2.4-2.4
	c2.5-0.1,5.1-0.3,7.5-0.9c4.6-1.2,7.3-4.9,7.3-9.6c0-5.8,0-11.6,0-17.9c-1.2,0-2.2,0-3.3,0c-17.9,0-35.8,0-53.7-0.1
	c-2.3,0-4,0.7-5.7,2.1c-10.6,9-21.4,17.9-32,27c-5.4,4.6-14.6,1.6-15.5-6.3c-0.4-3.4,0.8-6.1,3.3-8.3c6.5-5.5,13-11.1,19.5-16.6
	c29.2-24.7,58.3-49.3,87.5-74c0.6-0.5,1.3-1,2.2-1.8c4.1,4.8,8.1,9.5,12.3,14.5c-17.2,14.5-34.1,28.9-51.1,43.3
	c0.1,0.2,0.1,0.4,0.2,0.6c0.9,0,1.9,0.1,2.8,0.1c16.7,0,33.4,0.1,50,0c2.3,0,2.9,0.7,2.9,2.9c-0.1,11.2,0.1,22.3-0.1,33.5
	c-0.2,12.4-5.7,21.6-16.9,27.4c-0.9,0.5-2,1.7-2.1,2.6c-1.2,9.7-2.1,19.4-3.2,29.1c-1.4,13-2.5,26.1-4.6,39
	c-2,12.1-12.7,21.5-24.9,22.4c-8.6,0.6-17.2,0.5-25.8,0.5c-35.7,0-71.5,0-107.2,0c-12.9,0-24-7.5-28-19.4c-1.4-4-1.8-8.5-2.3-12.8
	c-1.2-10.3-2.3-20.7-3.4-31c-0.9-8.4-1.8-16.8-2.6-25.2c-0.3-2.8-1-4.7-3.9-6.2C5.4,116,0.5,107.1,0.2,96c-0.3-11.7,0-23.5-0.1-35.2
	c0-2.3,1.2-2.2,2.8-2.2c39.8,0,79.5,0,119.3,0C124,58.5,125.8,58.5,128.4,58.5z"/>
<path class="st0" d="M90.4,153.2c0,8.2,0,16.4,0,24.6c0,1.9-0.4,2.6-2.4,2.6c-4.9-0.1-9.9-0.1-14.8,0c-1.6,0-2.2-0.4-2.2-2.1
	c0-16.9,0-33.8,0-50.8c0-1.7,0.7-2.1,2.2-2.1c5,0.1,10,0.1,15,0c1.8,0,2.2,0.7,2.2,2.3C90.4,136.3,90.4,144.8,90.4,153.2z"/>
<path class="st0" d="M129.8,153c0,8.3,0,16.6,0,24.9c0,1.8-0.4,2.6-2.4,2.6c-4.8-0.2-9.7-0.1-14.5,0c-1.8,0-2.4-0.4-2.4-2.3
	c0.1-16.8,0.1-33.5,0-50.3c0-1.6,0.4-2.4,2.2-2.3c5,0.1,10,0.1,15,0c1.8,0,2.2,0.7,2.2,2.3C129.8,136.2,129.8,144.6,129.8,153z"/>
<path class="st0" d="M169.3,153c0,8.3,0,16.6,0,24.9c0,1.9-0.4,2.6-2.4,2.6c-4.8-0.1-9.7-0.1-14.5,0c-1.8,0-2.4-0.4-2.4-2.3
	c0.1-16.8,0.1-33.5,0-50.3c0-1.6,0.4-2.4,2.2-2.3c5,0.1,10,0.1,15,0c1.8,0,2.2,0.7,2.2,2.3C169.2,136.2,169.3,144.6,169.3,153z"/>
</svg>
