<?xml version="1.0" encoding="utf-8"?>
<!-- Generator: Adobe Illustrator 23.0.6, SVG Export Plug-In . SVG Version: 6.00 Build 0)  -->
<svg version="1.1" id="Layer_1" xmlns="http://www.w3.org/2000/svg" xmlns:xlink="http://www.w3.org/1999/xlink" x="0px" y="0px"
	 viewBox="0 0 197.5 197.5" style="enable-background:new 0 0 197.5 197.5;" xml:space="preserve">
<style type="text/css">
	.st0{fill:#E7D5C7;}
</style>
<g>
	<path class="st0" d="M112.6,62.9H85.2c-6.1,0-9.1,2.9-9.1,8.8v13.3h14.6V74.9h15.5v16.3H84.4c-6.1,0-9.1,2.9-9.1,8.8v25.8
		c0,5.8,2.9,8.7,8.8,8.7c0.5,0,17-0.1,27.9-0.2c5.3,0,9.6-4.4,9.6-9.7V71.8C121.6,65.9,118.6,62.9,112.6,62.9z M106.2,121.4
		L90.7,122v-19.7h15.5V121.4z"/>
	<path class="st0" d="M98.7,0C44.2,0,0,44.2,0,98.7c0,54.5,44.2,98.7,98.7,98.7c54.5,0,98.7-44.2,98.7-98.7
		C197.5,44.2,153.3,0,98.7,0z M143.1,123.4c0,11-3.2,19.1-9.6,24.3c-6.4,5.3-16.1,7.9-29.3,7.9H60c-2,0-3.5-0.4-4.3-1.3
		c-0.9-0.9-1.3-2.3-1.3-4.3V47.5c0-2,0.4-3.5,1.3-4.3c0.9-0.9,2.3-1.3,4.3-1.3h44.3c13.2,0,22.9,2.6,29.3,7.9
		c6.4,5.3,9.6,13.4,9.6,24.3V123.4z"/>
</g>
</svg>
